<?xml version="1.0" encoding="UTF-8"?>
<svg width="312px" height="391px" viewBox="0 0 312 391" version="1.1" xmlns="http://www.w3.org/2000/svg" xmlns:xlink="http://www.w3.org/1999/xlink">
    <!-- Generator: Sketch 63.1 (92452) - https://sketch.com -->
    <title>Path</title>
    <desc>Created with Sketch.</desc>
    <g id="Page-1" stroke="none" stroke-width="1" fill="none" fill-rule="evenodd">
        <g id="fist" fill="#000000" fill-rule="nonzero">
            <path d="M257.415,45.524 L257.415,12.661 L203.527,12.661 L203.527,0 L119.631,0 L65.743,0.005 L65.743,43.116 L18.557,48.518 L0.695,180.781 L92.513,300.582 L87.055,390.169576 L117.073,390.169576 L122.151,315.363 L157.633,325.04 L165.528,296.089 L116.665,282.762 L32.104,172.431 L45.171,75.676 L94.772,69.995 C102.558,69.106 109.706,74.199 111.407,81.843 C112.938,88.73 109.592,95.72 103.268,98.844 L65.745,117.376 L65.745,167.142 L78.916,168.763 C79.765,168.867 163.899,180.013 166.285,248.214 L196.275,247.165 C194.942,209.048 175.419,178.419 139.775,158.398 C140.371,157.691 140.944,156.966 141.494,156.219 C147.464,159.49 154.309,161.352 161.583,161.352 C168.72,161.352 175.444,159.555 181.333,156.399 C188.948,167.051 201.406,174.014 215.47,174.014 C223.698,174.014 231.373,171.623 237.857,167.514 C245.55,176.266 256.816,181.806 269.358,181.806 C273.506,181.806 277.511,181.192 281.297,180.066 L281.297,252.869 L256.495,302.615 L259.257,390.169576 L289.267,390.169576 L286.597,309.493 L311.306,259.934 L311.306,45.524 L257.415,45.524 Z M95.752,39.892 L95.752,30.013 L119.632,30.013 L119.632,46.204 C112.585,42.021 104.369,39.732 95.752,39.892 Z M119.637,131.406 L119.636,131.406 C119.636,137.991 114.28,143.347 107.695,143.347 C102.662,143.347 98.245,140.204 96.529,135.641 L116.558,125.749 C117.614,125.227 118.639,124.664 119.638,124.072 L119.638,131.406 L119.637,131.406 Z M161.579,131.344 C155.021,131.344 149.686,126.03 149.643,119.482 L149.643,30.008 L173.519,30.008 L173.519,119.404 L173.52,119.404 C173.519,125.988 168.163,131.344 161.579,131.344 Z M227.408,132.066 L227.408,132.066 C227.407,138.65 222.052,144.005 215.468,144.005 C208.884,144.005 203.529,138.65 203.529,132.066 L203.529,42.67 L227.409,42.67 L227.409,132.066 L227.408,132.066 Z M281.295,139.858 C281.295,146.442 275.94,151.798 269.356,151.798 C262.772,151.798 257.416,146.443 257.416,139.858 L257.416,75.533 L281.296,75.533 L281.296,139.858 L281.295,139.858 Z" id="Shape"></path>
        </g>
    </g>
</svg>